# xmcd
#
# Track frame offsets:
#	150
#	10918
#	26256
#	48569
#	74487
#	94705
#	114919
#	134503
#	150954
#	172270
#
# Disc length: 2468 seconds
#
# Revision: 0
# Processed by: cddbd v1.5.1PL0 Copyright (c) Steve Scherf et al.
# Submitted via: EasyCDDAExtractor 7.1.3.1
#
DISCID=7c09a20a
DTITLE=Dio - Poplar Creek Hoffman Estates 08-08-84 Disc 1
DYEAR=1984
DGENRE=Hard Rock
TTITLE0=Intro
TTITLE1=Stand Up And Shout
TTITLE2=One Night In The City
TTITLE3=Don't Talk To Strangers
TTITLE4=Mystery
TTITLE5=Egypt
TTITLE6=Holy Diver
TTITLE7=Drum Solo/Vinny Appice
TTITLE8=Heaven And Hell
TTITLE9=Guitar Solo/Vivian Campbell (cut)
EXTD=
EXTT0=
EXTT1=
EXTT2=
EXTT3=
EXTT4=
EXTT5=
EXTT6=
EXTT7=
EXTT8=
EXTT9=
PLAYORDER=
